<mxfile host="app.diagrams.net" modified="2024-04-06T18:59:52.291Z" agent="Mozilla/5.0 (Windows NT 10.0; Win64; x64) AppleWebKit/537.36 (KHTML, like Gecko) Chrome/123.0.0.0 Safari/537.36" version="24.2.2" etag="7Y2KF9lBV6CmOB-G7288" type="github">
  <diagram name="PÃ¡gina-1" id="9cmYUNXV657eLl7E4HPz">
    <mxGraphModel>
      <root>
        <mxCell id="0" />
        <mxCell id="1" parent="0" />
      </root>
    </mxGraphModel>
  </diagram>
</mxfile>
